<svg width="14" height="12" viewBox="0 0 14 12" fill="none" xmlns="http://www.w3.org/2000/svg">
<path d="M7.646 0.646894C7.69245 0.60033 7.74762 0.563387 7.80837 0.538181C7.86911 0.512974 7.93423 0.5 8 0.5C8.06577 0.5 8.13089 0.512974 8.19163 0.538181C8.25238 0.563387 8.30755 0.60033 8.354 0.646894L13.354 5.64689C13.4006 5.69334 13.4375 5.74852 13.4627 5.80926C13.4879 5.87001 13.5009 5.93513 13.5009 6.00089C13.5009 6.06666 13.4879 6.13178 13.4627 6.19253C13.4375 6.25327 13.4006 6.30845 13.354 6.35489L8.354 11.3549C8.26011 11.4488 8.13278 11.5015 8 11.5015C7.86722 11.5015 7.73989 11.4488 7.646 11.3549C7.55211 11.261 7.49937 11.1337 7.49937 11.0009C7.49937 10.8681 7.55211 10.7408 7.646 10.6469L11.793 6.50089H1C0.867392 6.50089 0.740215 6.44822 0.646447 6.35445C0.552679 6.26068 0.5 6.1335 0.5 6.00089C0.5 5.86829 0.552679 5.74111 0.646447 5.64734C0.740215 5.55357 0.867392 5.50089 1 5.50089H11.793L7.646 1.35489C7.59944 1.30845 7.56249 1.25327 7.53729 1.19253C7.51208 1.13178 7.49911 1.06666 7.49911 1.00089C7.49911 0.935126 7.51208 0.870005 7.53729 0.80926C7.56249 0.748515 7.59944 0.693339 7.646 0.646894Z" fill="#494791"/>
</svg>
