<svg width="25" height="24" viewBox="0 0 25 24" fill="none" xmlns="http://www.w3.org/2000/svg">
  <path
    fillRule="evenodd"
    clipRule="evenodd"
    d="M11.4456 2.186C10.0902 2.18612 8.75443 2.51037 7.54982 3.1317C6.34522 3.75303 5.30666 4.65342 4.5208 5.75776C3.73495 6.86209 3.22458 8.13835 3.03227 9.48005C2.83997 10.8217 2.97132 12.19 3.41534 13.4706C3.85937 14.7512 4.60321 15.9071 5.5848 16.8417C6.56639 17.7764 7.75727 18.4628 9.05808 18.8436C10.3589 19.2244 11.7319 19.2887 13.0626 19.0309C14.3933 18.7732 15.643 18.201 16.7076 17.362L20.3596 21.014C20.5482 21.1962 20.8008 21.297 21.063 21.2947C21.3252 21.2924 21.576 21.1872 21.7614 21.0018C21.9468 20.8164 22.052 20.5656 22.0542 20.3034C22.0565 20.0412 21.9557 19.7886 21.7736 19.6L18.1216 15.948C19.1096 14.6946 19.7247 13.1884 19.8967 11.6017C20.0686 10.0151 19.7904 8.41202 19.0938 6.9761C18.3972 5.54017 17.3105 4.32936 15.9579 3.48224C14.6053 2.63511 13.0415 2.1859 11.4456 2.186ZM4.94557 10.686C4.94557 8.9621 5.63039 7.3088 6.84937 6.08981C8.06836 4.87082 9.72166 4.186 11.4456 4.186C13.1695 4.186 14.8228 4.87082 16.0418 6.08981C17.2607 7.3088 17.9456 8.9621 17.9456 10.686C17.9456 12.4099 17.2607 14.0632 16.0418 15.2822C14.8228 16.5012 13.1695 17.186 11.4456 17.186C9.72166 17.186 8.06836 16.5012 6.84937 15.2822C5.63039 14.0632 4.94557 12.4099 4.94557 10.686Z"
    fill="white"
  />
</svg>
