<svg xmlns="http://www.w3.org/2000/svg" width="600" height="400" viewBox="0 0 600 400"><rect width="100%" height="100%" fill="#FFA500"/><path fill="#FFFFFF" d="M156.75 228.8h13.65v9.71h-42v-9.71h15.39v-44.26q0-2.62.15-5.41l-10.92 9.14q-.94.73-1.86.92-.92.18-1.73.02-.82-.15-1.45-.55-.63-.39-.94-.86l-4.1-5.62 23.16-19.69h10.65zm51.72-16.59v-10.82h27.19v10.82zm115.02-38.38h-33.7v22.47h28.45v11.29h-28.45v30.92h-14.18V162.6h47.88zm9.93 10.82h13.02v53.86h-13.02zm14.8-15.7q0 1.68-.68 3.15t-1.81 2.57-2.65 1.76q-1.53.66-3.26.66-1.68 0-3.17-.66-1.5-.66-2.6-1.76-1.11-1.1-1.76-2.57-.66-1.47-.66-3.15 0-1.74.66-3.26.65-1.52 1.76-2.62 1.1-1.11 2.6-1.76 1.49-.66 3.17-.66 1.73 0 3.26.66 1.52.65 2.65 1.76 1.13 1.1 1.81 2.62t.68 3.26m22.89 18.95.79 6.09q2.52-4.83 5.98-7.59 3.47-2.75 8.19-2.75 3.73 0 5.99 1.63l-.84 9.71q-.26.94-.76 1.34-.5.39-1.34.39-.79 0-2.34-.26t-3.02-.26q-2.15 0-3.83.63t-3.02 1.81-2.36 2.86-1.92 3.83v33.18h-12.96v-53.86h7.61q1.99 0 2.78.7.79.71 1.05 2.55m63.53 2.57-2.94 4.68q-.53.84-1.11 1.18-.57.34-1.47.34-.94 0-2.02-.53-1.07-.52-2.49-1.18-1.42-.65-3.23-1.18-1.81-.52-4.28-.52-3.83 0-6.01 1.62-2.18 1.63-2.18 4.25 0 1.74 1.13 2.92t2.99 2.07q1.87.9 4.23 1.6 2.36.71 4.8 1.55t4.81 1.92q2.36 1.08 4.22 2.73 1.87 1.65 3 3.96 1.12 2.31 1.12 5.57 0 3.88-1.39 7.16-1.39 3.29-4.12 5.67-2.73 2.39-6.74 3.73-4.02 1.34-9.27 1.34-2.78 0-5.43-.5-2.66-.5-5.1-1.39t-4.51-2.1q-2.08-1.21-3.65-2.62l2.99-4.94q.58-.89 1.37-1.36.78-.48 1.99-.48t2.29.68q1.07.69 2.49 1.48 1.42.78 3.33 1.47 1.92.68 4.86.68 2.31 0 3.96-.55 1.66-.55 2.73-1.45 1.08-.89 1.58-2.07t.5-2.44q0-1.89-1.13-3.1t-2.99-2.1q-1.87-.89-4.26-1.6t-4.88-1.55-4.88-1.97-4.25-2.86q-1.87-1.73-3-4.25t-1.13-6.09q0-3.31 1.32-6.3 1.31-2.99 3.86-5.23 2.54-2.23 6.35-3.57 3.8-1.33 8.79-1.33 5.57 0 10.13 1.83 4.57 1.84 7.62 4.83m28.29 48.88q-7.03 0-10.78-3.96-3.76-3.97-3.76-10.95v-30.08h-5.51q-1.05 0-1.79-.69-.73-.68-.73-2.04v-5.15l8.66-1.42 2.73-14.69q.26-1.05 1-1.63.73-.58 1.89-.58h6.72v16.96h14.38v9.24h-14.38v29.19q0 2.52 1.23 3.93 1.24 1.42 3.39 1.42 1.21 0 2.02-.29t1.42-.6q.6-.31 1.07-.6.48-.29.95-.29.58 0 .94.29.37.29.79.86l3.89 6.3q-2.84 2.37-6.51 3.57-3.68 1.21-7.62 1.21"/></svg>