<svg xmlns="http://www.w3.org/2000/svg" width="600" height="400" viewBox="0 0 600 400"><rect width="100%" height="100%" fill="#008000"/><path fill="#FFFFFF" d="M143.055 219.435h14.28q1.54 0 2.45.87.9.87.9 2.29v5.7h-38.19v-3.16q0-.96.4-2.02.41-1.06 1.29-1.9l16.91-16.94q2.11-2.16 3.79-4.12 1.67-1.97 2.79-3.89 1.12-1.93 1.71-3.91.6-1.98.6-4.18 0-2-.58-3.52t-1.63-2.56q-1.06-1.04-2.55-1.56-1.48-.52-3.33-.52-1.69 0-3.13.48-1.45.48-2.56 1.35-1.12.87-1.89 2.02-.77 1.16-1.16 2.54-.65 1.77-1.69 2.35t-3 .27l-5.01-.89q.58-4 2.24-7.02 1.65-3.02 4.13-5.05 2.49-2.02 5.7-3.04 3.22-1.02 6.91-1.02 3.85 0 7.05 1.14 3.19 1.13 5.47 3.21 2.27 2.08 3.54 5.01 1.27 2.92 1.27 6.51 0 3.08-.91 5.69-.9 2.62-2.42 5.01-1.52 2.38-3.56 4.62-2.04 2.23-4.28 4.54l-12.55 12.82q1.81-.54 3.6-.83t3.41-.29m44.27-10.43v-7.93h19.95v7.93zm81.47-31.15-2.58 4.89q-.46.81-.98 1.18-.52.36-1.29.36-.81 0-1.75-.59-.95-.6-2.25-1.33-1.31-.73-3.07-1.33-1.75-.6-4.13-.6-2.16 0-3.78.52-1.61.52-2.71 1.45-1.1.92-1.64 2.21t-.54 2.83q0 1.97 1.1 3.27 1.1 1.31 2.91 2.24 1.81.92 4.12 1.65t4.73 1.56q2.43.83 4.74 1.93 2.31 1.09 4.12 2.77 1.81 1.67 2.9 4.1 1.1 2.42 1.1 5.89 0 3.77-1.29 7.06-1.29 3.3-3.77 5.74-2.48 2.45-6.07 3.85-3.58 1.41-8.2 1.41-2.65 0-5.23-.52t-4.95-1.49q-2.37-.96-4.45-2.31-2.07-1.34-3.69-3l3.04-4.97q.38-.53 1-.9t1.31-.37q.96 0 2.08.79t2.66 1.76q1.54.96 3.6 1.75 2.05.79 4.94.79 4.43 0 6.86-2.1 2.42-2.1 2.42-6.03 0-2.19-1.1-3.58-1.09-1.38-2.9-2.33-1.81-.94-4.12-1.59-2.31-.66-4.7-1.43t-4.7-1.85-4.12-2.81-2.9-4.33q-1.1-2.6-1.1-6.41 0-3.04 1.21-5.93 1.22-2.89 3.53-5.12t5.69-3.58q3.39-1.35 7.78-1.35 4.93 0 9.09 1.54 4.15 1.54 7.08 4.31m16.02 26.15h17.94q0-1.85-.52-3.49-.52-1.63-1.56-2.87-1.04-1.23-2.64-1.94t-3.71-.71q-4.12 0-6.49 2.35-2.37 2.34-3.02 6.66m24.25 5.73h-24.45q.23 3.04 1.08 5.26.85 2.21 2.23 3.66 1.39 1.44 3.3 2.15 1.9.71 4.21.71t3.99-.53q1.67-.54 2.92-1.2 1.25-.65 2.2-1.19.94-.54 1.83-.54 1.19 0 1.77.88l2.73 3.47q-1.58 1.85-3.54 3.1t-4.1 2-4.35 1.06q-2.22.31-4.29.31-4.12 0-7.67-1.37-3.54-1.37-6.16-4.04-2.61-2.68-4.12-6.62-1.5-3.95-1.5-9.15 0-4.04 1.31-7.6t3.76-6.2q2.44-2.64 5.96-4.18 3.53-1.54 7.95-1.54 3.74 0 6.89 1.2 3.16 1.19 5.43 3.48t3.56 5.62 1.29 7.61q0 2.15-.46 2.9t-1.77.75m40.16-16.05-2.51 3.46q-.42.54-.82.85-.41.31-1.18.31-.73 0-1.42-.44-.7-.45-1.66-1.01-.96-.55-2.29-1-1.33-.44-3.29-.44-2.5 0-4.39.91-1.89.9-3.14 2.59-1.25 1.7-1.86 4.1-.62 2.41-.62 5.45 0 3.16.67 5.62.68 2.47 1.95 4.14 1.27 1.68 3.08 2.54 1.81.87 4.08.87t3.68-.56q1.4-.56 2.36-1.23.97-.67 1.68-1.23t1.6-.56q1.15 0 1.73.88l2.73 3.47q-1.58 1.85-3.42 3.1-1.85 1.25-3.84 2-1.98.75-4.08 1.06-2.09.31-4.17.31-3.66 0-6.9-1.37-3.23-1.37-5.65-3.98-2.43-2.62-3.84-6.41-1.4-3.8-1.4-8.65 0-4.35 1.25-8.06 1.25-3.72 3.68-6.43 2.42-2.72 6-4.26t8.24-1.54q4.43 0 7.76 1.43 3.33 1.42 5.99 4.08m23.79-5.51q4.39 0 7.99 1.43 3.6 1.42 6.16 4.04t3.94 6.39q1.39 3.77 1.39 8.43 0 4.7-1.39 8.47-1.38 3.78-3.94 6.43-2.56 2.66-6.16 4.08-3.6 1.43-7.99 1.43-4.43 0-8.05-1.43-3.62-1.42-6.18-4.08-2.56-2.65-3.96-6.43-1.41-3.77-1.41-8.47 0-4.66 1.41-8.43 1.4-3.77 3.96-6.39t6.18-4.04q3.62-1.43 8.05-1.43m0 33.38q4.93 0 7.3-3.31 2.36-3.31 2.36-9.7t-2.36-9.74q-2.37-3.35-7.3-3.35-5.01 0-7.41 3.37-2.41 3.37-2.41 9.72t2.41 9.68q2.4 3.33 7.41 3.33m35-31.03.65 3.12q1.19-1.19 2.52-2.21t2.81-1.74q1.49-.71 3.18-1.11 1.69-.41 3.7-.41 3.23 0 5.73 1.1t4.18 3.08q1.67 1.98 2.54 4.74.87 2.75.87 6.06v25.14h-9.51v-25.14q0-3.62-1.66-5.6-1.65-1.99-5.04-1.99-2.47 0-4.62 1.12-2.16 1.12-4.08 3.04v28.57h-9.51v-39.5h5.81q1.85 0 2.43 1.73m59.98 26.07v-17.71q-1.62-1.97-3.52-2.78-1.91-.8-4.1-.8-2.16 0-3.89.8-1.73.81-2.97 2.45-1.23 1.63-1.88 4.16-.66 2.52-.66 5.95 0 3.46.56 5.87.56 2.4 1.6 3.92t2.54 2.2q1.5.67 3.35.67 2.96 0 5.04-1.23t3.93-3.5m0-45.51h9.51v57.21h-5.81q-1.89 0-2.39-1.73l-.81-3.81q-2.39 2.73-5.49 4.42-3.1 1.7-7.22 1.7-3.23 0-5.92-1.35-2.7-1.35-4.64-3.91-1.95-2.56-3.01-6.33t-1.06-8.62q0-4.39 1.2-8.17 1.19-3.77 3.42-6.54 2.24-2.77 5.36-4.33 3.11-1.56 7-1.56 3.31 0 5.66 1.04t4.2 2.81z"/></svg>