<svg xmlns="http://www.w3.org/2000/svg" width="600" height="400" viewBox="0 0 600 400"><rect width="100%" height="100%" fill="#FF0000"/><path fill="#FFFFFF" d="m132.25 186.46-6.17-1.09q.71-4.94 2.75-8.67 2.05-3.73 5.11-6.22 3.06-2.5 7.03-3.76t8.53-1.26q4.75 0 8.57 1.36 3.82 1.35 6.53 3.75t4.16 5.63 1.45 6.98q0 3.28-.74 5.77-.74 2.5-2.11 4.35-1.38 1.85-3.42 3.13-2.05 1.29-4.61 2.14 6.17 1.95 9.21 5.94t3.04 10.02q0 5.13-1.9 9.08-1.9 3.94-5.13 6.62t-7.48 4.06-9 1.38q-5.18 0-9.02-1.19-3.85-1.18-6.7-3.51t-4.85-5.7q-1.99-3.38-3.42-7.79l5.18-2.14q2.04-.86 3.82-.45 1.79.4 2.59 1.92.86 1.67 1.88 3.28t2.45 2.87q1.42 1.26 3.34 2.05 1.93.78 4.59.78 2.99 0 5.22-.97 2.24-.98 3.73-2.54 1.5-1.57 2.23-3.5.74-1.92.74-3.87 0-2.47-.52-4.49-.52-2.01-2.19-3.44-1.66-1.43-4.77-2.23-3.11-.81-8.34-.81v-8.36q4.33-.05 7.18-.81t4.53-2.11q1.69-1.36 2.35-3.26.67-1.9.67-4.18 0-4.84-2.71-7.36-2.71-2.51-7.22-2.51-2.09 0-3.85.59-1.75.59-3.16 1.66-1.4 1.07-2.35 2.5-.95 1.42-1.42 3.13-.81 2.19-2.12 2.9-1.3.71-3.68.33m72.3 24.65v-9.78h24.6v9.78zm108.73-44.89v10.5h-20.71v58.19h-12.78v-58.19h-20.71v-10.5zm18.9-1.89v27.07q2.85-2.66 6.27-4.32t8.03-1.66q3.99 0 7.08 1.35 3.08 1.35 5.15 3.8 2.07 2.44 3.13 5.84 1.07 3.4 1.07 7.48v31.02h-11.73v-31.02q0-4.46-2.04-6.91t-6.22-2.45q-3.04 0-5.7 1.38t-5.04 3.76v35.24h-11.73v-70.58zm42.23 21.85h11.78v48.73h-11.78zm13.39-14.21q0 1.52-.61 2.85-.62 1.33-1.64 2.33t-2.4 1.59-2.95.59q-1.52 0-2.87-.59t-2.35-1.59-1.59-2.33q-.6-1.33-.6-2.85 0-1.56.6-2.94.59-1.38 1.59-2.38 1-.99 2.35-1.59 1.35-.59 2.87-.59 1.57 0 2.95.59 1.38.6 2.4 1.59 1.02 1 1.64 2.38.61 1.38.61 2.94m20.71 17.15.72 5.51q2.28-4.37 5.41-6.86 3.14-2.5 7.41-2.5 3.37 0 5.42 1.48l-.76 8.78q-.24.86-.69 1.21-.45.36-1.21.36-.72 0-2.12-.24t-2.73-.24q-1.95 0-3.47.57t-2.73 1.64-2.14 2.59q-.92 1.52-1.73 3.47v30.02h-11.73v-48.73h6.89q1.8 0 2.51.64.72.64.95 2.3m55.67 31.35v-21.85q-1.99-2.42-4.34-3.42t-5.06-1q-2.66 0-4.8 1t-3.66 3.02-2.32 5.13q-.81 3.11-.81 7.33 0 4.28.69 7.25t1.97 4.84q1.28 1.88 3.13 2.71 1.86.83 4.14.83 3.65 0 6.22-1.52 2.56-1.52 4.84-4.32m0-56.14h11.74v70.58h-7.18q-2.32 0-2.94-2.14l-1-4.7q-2.94 3.37-6.77 5.46-3.82 2.09-8.9 2.09-3.99 0-7.32-1.66-3.32-1.66-5.72-4.82t-3.71-7.82q-1.3-4.65-1.3-10.64 0-5.41 1.47-10.07 1.47-4.65 4.23-8.07 2.75-3.42 6.6-5.34 3.85-1.93 8.64-1.93 4.09 0 6.99 1.28 2.89 1.29 5.17 3.47z"/></svg>